<?xml version="1.0" standalone="no"?>
<!DOCTYPE svg PUBLIC "-//W3C//DTD SVG 20010904//EN"
 "http://www.w3.org/TR/2001/REC-SVG-20010904/DTD/svg10.dtd">
<svg version="1.0" xmlns="http://www.w3.org/2000/svg"
 width="4459.000000pt" height="4938.000000pt" viewBox="0 0 4459.000000 4938.000000"
 preserveAspectRatio="xMidYMid meet">

<g transform="translate(0.000000,4938.000000) scale(0.100000,-0.100000)"
fill="#000000" stroke="none">
<path d="M9125 49370 c-689 -50 -1323 -194 -1956 -445 -1673 -664 -3059 -2011
-3769 -3665 -234 -545 -399 -1151 -470 -1725 -11 -93 -664 -7527 -1450 -16520
-787 -8992 -1437 -16422 -1445 -16511 -81 -870 2 -1650 260 -2431 147 -442
367 -894 630 -1293 298 -453 707 -899 1137 -1241 57 -45 146 -122 198 -170
657 -606 1479 -1048 2365 -1272 292 -74 553 -120 880 -154 215 -22 845 -25
1060 -5 1181 112 2247 505 3225 1190 492 345 971 788 1370 1267 379 455 732
1023 975 1571 262 590 448 1276 514 1894 6 52 305 3470 666 7595 360 4125 657
7519 661 7542 5 43 5 43 32 29 50 -26 239 -84 338 -105 188 -39 254 -41 1277
-41 l997 0 0 -89 c0 -327 115 -713 298 -996 137 -213 339 -420 542 -555 36
-23 113 -91 171 -149 276 -279 559 -447 910 -540 174 -47 303 -63 489 -63 220
-1 454 38 623 102 28 11 52 18 54 17 5 -5 -417 -244 -482 -272 -291 -129 -524
-183 -835 -192 -219 -7 -383 11 -585 62 -71 18 -131 31 -133 30 -6 -5 106
-181 170 -267 160 -217 346 -403 563 -564 44 -32 117 -93 162 -135 321 -300
707 -521 1114 -638 142 -41 330 -77 473 -92 186 -18 507 -7 686 24 239 42 476
118 695 221 61 29 1757 1003 3769 2165 2013 1162 3665 2115 3670 2117 6 2 45
-23 86 -57 335 -270 727 -435 1152 -485 73 -8 134 -16 135 -18 2 -1 -98 -1159
-222 -2572 -124 -1413 -225 -2575 -225 -2581 0 -10 52 -13 225 -13 l226 0 -6
-47 c-10 -87 -25 -255 -25 -279 l0 -24 1900 0 1899 0 4 1588 c3 1458 4 1596
21 1692 74 443 247 794 541 1099 354 366 789 571 1302 612 327 27 691 -40 991
-181 163 -78 215 -113 282 -195 262 -321 417 -708 449 -1124 7 -86 11 -678 11
-1638 l0 -1503 210 0 210 0 0 -175 0 -175 2160 0 2160 0 4 23 c3 12 479 5436
1058 12052 l1053 12030 0 400 c-1 416 -7 518 -55 845 -132 897 -489 1765
-1021 2481 -278 375 -587 694 -974 1009 -93 77 -215 178 -270 225 -686 593
-1554 1017 -2465 1204 -615 126 -1255 153 -1894 81 -2570 -293 -4850 -2194
-5636 -4700 -144 -459 -223 -874 -273 -1430 -14 -146 -249 -2833 -523 -5972
l-499 -5707 -585 -4 c-630 -4 -644 -5 -875 -63 -155 -39 -268 -80 -422 -154
-182 -88 -300 -164 -498 -324 l-24 -19 -3639 2101 c-2002 1156 -3673 2119
-3713 2141 -357 192 -797 301 -1219 301 -835 0 -1627 -396 -2131 -1065 -67
-90 -179 -261 -179 -276 0 -4 28 1 63 11 160 48 386 80 562 80 l105 0 -70 -87
c-98 -121 -240 -332 -240 -356 0 -2 35 6 78 19 232 67 578 92 832 59 242 -30
493 -107 702 -214 93 -47 6864 -3954 6925 -3996 87 -58 270 -318 373 -530 445
-911 200 -2017 -587 -2645 -77 -62 -208 -151 -288 -195 -48 -27 -46 -24 41 58
368 347 581 817 601 1327 26 658 -286 1284 -824 1651 -61 41 -125 96 -160 135
-78 89 -235 222 -352 299 -115 76 -5935 3437 -6060 3499 -178 89 -376 150
-591 182 -167 24 -449 15 -617 -20 -607 -128 -1112 -519 -1368 -1059 -90 -191
-150 -405 -174 -619 -6 -54 -11 -230 -11 -393 l0 -295 -1055 0 c-1011 0 -1055
1 -1055 18 0 10 232 2664 515 5899 283 3234 520 5954 526 6044 15 207 6 751
-15 949 -163 1518 -862 2826 -2003 3747 -65 53 -174 146 -243 209 -900 812
-1988 1287 -3230 1409 -192 19 -753 28 -935 15z m624 -40 c681 -31 1277 -155
1871 -392 981 -391 1820 -1055 2423 -1917 700 -999 1050 -2254 977 -3501 -5
-91 -253 -2941 -550 -6334 -297 -3393 -538 -6171 -536 -6174 2 -2 39 1 81 7
51 7 505 11 1361 11 l1284 0 0 268 c0 306 12 487 41 639 69 356 264 713 530
968 392 376 930 571 1452 527 240 -21 434 -73 642 -172 144 -68 5974 -3432
6125 -3534 133 -89 357 -310 452 -446 249 -353 370 -791 338 -1218 -45 -592
-342 -1107 -822 -1424 -97 -64 -5960 -3449 -6063 -3501 -424 -211 -943 -245
-1403 -92 -406 135 -764 413 -996 773 -73 112 -154 282 -196 411 -77 235 -100
428 -100 847 l0 264 -1222 0 c-767 0 -1267 4 -1342 11 -199 17 -389 63 -558
134 -45 19 -83 33 -85 31 -2 -2 -300 -3396 -663 -7542 -363 -4147 -664 -7588
-670 -7649 -134 -1339 -726 -2648 -1676 -3705 -134 -150 -460 -471 -599 -591
-1421 -1227 -3197 -1804 -4940 -1608 -1110 125 -2131 564 -2965 1275 -153 130
-461 439 -592 594 -662 785 -1091 1735 -1237 2745 -47 324 -55 444 -55 845 l0
385 1447 16525 c796 9089 1452 16570 1457 16625 311 2980 2805 5506 5798 5874
160 20 409 39 562 44 47 2 112 4 145 5 33 1 161 -3 284 -8z m29091 0 c853 -38
1637 -243 2358 -616 1182 -611 2088 -1631 2560 -2879 263 -697 390 -1489 355
-2227 -9 -191 -2092 -24091 -2109 -24196 l-5 -32 -2119 0 -2120 0 0 1535 c0
1012 -4 1569 -11 1633 -73 678 -479 1277 -1081 1597 -177 94 -407 171 -623
210 -143 26 -424 31 -582 11 -391 -50 -752 -203 -1046 -444 -98 -81 -279 -270
-351 -365 -153 -205 -278 -467 -340 -712 -64 -254 -60 -133 -63 -1877 l-4
-1588 -1854 0 -1855 0 0 21 c0 25 466 5369 475 5445 l6 51 -288 6 c-322 6
-445 20 -648 72 -304 78 -593 226 -840 430 -45 36 -87 64 -96 62 -9 -3 -1651
-949 -3650 -2103 -1999 -1154 -3676 -2120 -3726 -2147 -259 -136 -538 -226
-850 -274 -154 -23 -526 -23 -688 0 -743 109 -1405 516 -1814 1117 -32 47 -61
90 -64 96 -4 7 21 5 71 -7 239 -55 572 -70 797 -35 236 37 475 113 675 214
137 69 6876 3962 6990 4037 782 519 1143 1488 899 2415 -135 513 -470 977
-914 1265 -112 73 -6859 3968 -6975 4027 -199 101 -439 177 -675 214 -218 34
-561 20 -780 -32 -33 -7 -66 -14 -73 -14 -8 0 11 36 44 83 424 610 1058 1006
1795 1118 115 18 189 22 364 22 246 1 375 -13 590 -65 286 -68 474 -148 825
-349 213 -122 6941 -4005 7111 -4104 l55 -32 85 69 c255 210 550 360 859 437
241 60 281 63 918 68 l582 5 0 22 c0 29 1027 11775 1040 11901 158 1461 830
2847 1906 3930 1191 1199 2765 1914 4369 1984 253 12 271 12 515 1z"/>
<path d="M35320 19409 c-981 -87 -1758 -859 -1859 -1848 -7 -67 -11 -593 -11
-1517 l0 -1414 -2009 0 c-1247 0 -2012 -4 -2016 -9 -10 -18 -735 -8343 -746
-8572 -16 -351 8 -769 66 -1128 191 -1175 711 -2205 1525 -3021 388 -389 790
-690 1270 -950 74 -40 185 -103 245 -140 1109 -675 2463 -939 3815 -744 1238
178 2407 716 3397 1565 1262 1082 2092 2580 2303 4161 19 143 750 8449 750
8524 l0 34 -254 0 -255 0 5 53 c17 179 20 218 15 222 -2 3 -795 5 -1762 5
l-1758 0 -4 1343 c-3 1482 1 1387 -68 1646 -151 571 -552 1054 -1089 1314 -69
33 -179 96 -244 139 -387 258 -856 378 -1316 337z m405 -49 c665 -76 1251
-480 1554 -1070 110 -214 167 -387 207 -630 17 -96 18 -227 21 -1592 l4 -1488
2005 0 2004 0 -5 -37 c-3 -21 -167 -1894 -365 -4163 -198 -2269 -367 -4179
-376 -4245 -237 -1879 -1330 -3611 -2969 -4702 -1287 -858 -2767 -1230 -4240
-1067 -1401 155 -2687 840 -3579 1907 -822 985 -1266 2229 -1266 3552 0 121 5
287 10 369 6 82 172 1999 370 4259 198 2260 360 4114 360 4118 0 5 895 10
2018 11 l2017 3 6 1525 c6 1615 3 1519 48 1725 43 194 161 459 289 651 323
481 854 806 1425 873 104 12 358 12 462 1z m1350 -588 c419 -267 729 -696 855
-1186 66 -255 63 -189 67 -1638 l4 -1318 -225 0 -226 0 0 1430 c0 938 -4 1464
-11 1528 -48 449 -239 861 -549 1186 l-105 110 60 -34 c33 -18 92 -53 130 -78z
m4928 -4504 c-2 -18 -165 -1887 -363 -4153 -198 -2266 -367 -4176 -375 -4245
-207 -1698 -1140 -3315 -2545 -4408 -1022 -795 -2157 -1256 -3415 -1387 -207
-22 -727 -31 -940 -16 -640 44 -1204 170 -1760 393 -148 59 -448 198 -442 204
2 2 66 -19 141 -47 738 -268 1617 -376 2466 -303 1166 100 2296 529 3290 1248
552 399 1070 910 1483 1461 728 970 1177 2101 1291 3255 9 85 169 1908 356
4050 187 2142 342 3914 345 3938 l6 42 233 0 232 0 -3 -32z"/>
</g>
</svg>
